<?xml version="1.0" encoding="UTF-8"?>
<svg width="800" height="600" viewBox="0 0 800 600" fill="none" xmlns="http://www.w3.org/2000/svg">
  <!-- Background elements -->
  <rect width="800" height="600" fill="#F8F9FC" opacity="0.1"/>
  
  <!-- Building/marketplace structure -->
  <rect x="150" y="150" width="500" height="350" rx="20" fill="#4E73DF" opacity="0.1"/>
  <rect x="170" y="170" width="460" height="310" rx="15" fill="white" stroke="#4E73DF" stroke-width="2"/>
  
  <!-- Storefronts -->
  <rect x="200" y="220" width="120" height="150" rx="10" fill="#F0F4FF" stroke="#4E73DF" stroke-width="2"/>
  <rect x="340" y="220" width="120" height="150" rx="10" fill="#F0F4FF" stroke="#4E73DF" stroke-width="2"/>
  <rect x="480" y="220" width="120" height="150" rx="10" fill="#F0F4FF" stroke="#4E73DF" stroke-width="2"/>
  
  <!-- Store windows -->
  <rect x="215" y="250" width="90" height="70" rx="5" fill="white" stroke="#4E73DF" stroke-width="1.5"/>
  <rect x="355" y="250" width="90" height="70" rx="5" fill="white" stroke="#4E73DF" stroke-width="1.5"/>
  <rect x="495" y="250" width="90" height="70" rx="5" fill="white" stroke="#4E73DF" stroke-width="1.5"/>
  
  <!-- Store doors -->
  <rect x="240" y="330" width="40" height="40" rx="5" fill="white" stroke="#4E73DF" stroke-width="1.5"/>
  <rect x="380" y="330" width="40" height="40" rx="5" fill="white" stroke="#4E73DF" stroke-width="1.5"/>
  <rect x="520" y="330" width="40" height="40" rx="5" fill="white" stroke="#4E73DF" stroke-width="1.5"/>
  
  <!-- People figures (abstract) -->
  <circle cx="300" cy="420" r="15" fill="#4E73DF"/>
  <rect x="290" y="435" width="20" height="30" rx="10" fill="#4E73DF"/>
  
  <circle cx="350" cy="430" r="15" fill="#1CC88A"/>
  <rect x="340" y="445" width="20" height="30" rx="10" fill="#1CC88A"/>
  
  <circle cx="400" cy="425" r="15" fill="#F6C23E"/>
  <rect x="390" y="440" width="20" height="30" rx="10" fill="#F6C23E"/>
  
  <circle cx="450" cy="430" r="15" fill="#E74A3B"/>
  <rect x="440" y="445" width="20" height="30" rx="10" fill="#E74A3B"/>
  
  <!-- Connection lines between people -->
  <line x1="315" y1="425" x2="335" y2="425" stroke="#4E73DF" stroke-width="2" stroke-dasharray="4 2"/>
  <line x1="365" y1="425" x2="385" y2="425" stroke="#4E73DF" stroke-width="2" stroke-dasharray="4 2"/>
  <line x1="415" y1="425" x2="435" y2="425" stroke="#4E73DF" stroke-width="2" stroke-dasharray="4 2"/>
  
  <!-- Product items -->
  <rect x="220" y="260" width="30" height="20" rx="2" fill="#F6C23E" opacity="0.6"/>
  <rect x="260" y="270" width="30" height="20" rx="2" fill="#1CC88A" opacity="0.6"/>
  <rect x="230" y="290" width="25" height="15" rx="2" fill="#E74A3B" opacity="0.6"/>
  
  <rect x="360" y="265" width="30" height="20" rx="2" fill="#F6C23E" opacity="0.6"/>
  <rect x="400" y="275" width="30" height="20" rx="2" fill="#1CC88A" opacity="0.6"/>
  <rect x="370" y="295" width="25" height="15" rx="2" fill="#E74A3B" opacity="0.6"/>
  
  <rect x="500" y="260" width="30" height="20" rx="2" fill="#F6C23E" opacity="0.6"/>
  <rect x="540" y="270" width="30" height="20" rx="2" fill="#1CC88A" opacity="0.6"/>
  <rect x="510" y="290" width="25" height="15" rx="2" fill="#E74A3B" opacity="0.6"/>
  
  <!-- Floating elements -->
  <circle cx="150" cy="150" r="20" fill="#4E73DF" opacity="0.1"/>
  <circle cx="650" cy="450" r="30" fill="#1CC88A" opacity="0.1"/>
  <circle cx="650" cy="150" r="25" fill="#F6C23E" opacity="0.1"/>
  <circle cx="150" cy="450" r="15" fill="#E74A3B" opacity="0.1"/>
  
  <!-- Abstract connection waves -->
  <path d="M150 300C200 280 250 320 300 300C350 280 400 320 450 300C500 280 550 320 600 300C650 280 700 320 750 300" stroke="#4E73DF" stroke-width="2" stroke-opacity="0.2"/>
  <path d="M150 320C200 300 250 340 300 320C350 300 400 340 450 320C500 300 550 340 600 320C650 300 700 340 750 320" stroke="#1CC88A" stroke-width="2" stroke-opacity="0.2"/>
  
  <!-- Listing cards floating -->
  <rect x="600" y="200" width="80" height="100" rx="10" fill="white" stroke="#4E73DF" stroke-width="2" opacity="0.8"/>
  <rect x="610" y="210" width="60" height="40" rx="5" fill="#F0F4FF"/>
  <rect x="610" y="260" width="60" height="10" rx="2" fill="#4E73DF" opacity="0.2"/>
  <rect x="610" y="275" width="40" height="10" rx="2" fill="#4E73DF" opacity="0.2"/>
  
  <rect x="120" y="220" width="80" height="100" rx="10" fill="white" stroke="#1CC88A" stroke-width="2" opacity="0.8"/>
  <rect x="130" y="230" width="60" height="40" rx="5" fill="#F0F4FF"/>
  <rect x="130" y="280" width="60" height="10" rx="2" fill="#1CC88A" opacity="0.2"/>
  <rect x="130" y="295" width="40" height="10" rx="2" fill="#1CC88A" opacity="0.2"/>
  
  <!-- Mobile screens showing the marketplace -->
  <rect x="500" y="120" width="70" height="120" rx="10" fill="white" stroke="#4E73DF" stroke-width="2"/>
  <rect x="505" y="130" width="60" height="90" rx="5" fill="#F0F4FF"/>
  <rect x="510" y="140" width="20" height="15" rx="2" fill="#4E73DF" opacity="0.2"/>
  <rect x="510" y="160" width="50" height="10" rx="2" fill="#4E73DF" opacity="0.2"/>
  <rect x="510" y="175" width="50" height="10" rx="2" fill="#4E73DF" opacity="0.2"/>
  <rect x="510" y="190" width="30" height="10" rx="2" fill="#4E73DF" opacity="0.2"/>
  <circle cx="535" cy="230" r="5" fill="#F0F4FF" stroke="#4E73DF" stroke-width="1"/>
  
  <!-- Decorative elements -->
  <circle cx="400" cy="120" r="40" fill="#F6C23E" opacity="0.1"/>
  <circle cx="400" cy="120" r="30" fill="#F6C23E" opacity="0.15"/>
  <circle cx="400" cy="120" r="20" fill="#F6C23E" opacity="0.2"/>
  
  <!-- Abstract dots pattern -->
  <circle cx="200" cy="100" r="3" fill="#4E73DF" opacity="0.5"/>
  <circle cx="220" cy="100" r="3" fill="#4E73DF" opacity="0.5"/>
  <circle cx="240" cy="100" r="3" fill="#4E73DF" opacity="0.5"/>
  <circle cx="260" cy="100" r="3" fill="#4E73DF" opacity="0.5"/>
  <circle cx="280" cy="100" r="3" fill="#4E73DF" opacity="0.5"/>
  <circle cx="200" cy="120" r="3" fill="#4E73DF" opacity="0.5"/>
  <circle cx="220" cy="120" r="3" fill="#4E73DF" opacity="0.5"/>
  <circle cx="240" cy="120" r="3" fill="#4E73DF" opacity="0.5"/>
  <circle cx="260" cy="120" r="3" fill="#4E73DF" opacity="0.5"/>
  <circle cx="280" cy="120" r="3" fill="#4E73DF" opacity="0.5"/>
  
  <circle cx="500" cy="480" r="3" fill="#1CC88A" opacity="0.5"/>
  <circle cx="520" cy="480" r="3" fill="#1CC88A" opacity="0.5"/>
  <circle cx="540" cy="480" r="3" fill="#1CC88A" opacity="0.5"/>
  <circle cx="560" cy="480" r="3" fill="#1CC88A" opacity="0.5"/>
  <circle cx="580" cy="480" r="3" fill="#1CC88A" opacity="0.5"/>
  <circle cx="500" cy="500" r="3" fill="#1CC88A" opacity="0.5"/>
  <circle cx="520" cy="500" r="3" fill="#1CC88A" opacity="0.5"/>
  <circle cx="540" cy="500" r="3" fill="#1CC88A" opacity="0.5"/>
  <circle cx="560" cy="500" r="3" fill="#1CC88A" opacity="0.5"/>
  <circle cx="580" cy="500" r="3" fill="#1CC88A" opacity="0.5"/>
</svg>
