<?xml version="1.0" encoding="UTF-8"?>
<svg width="1440" height="800" viewBox="0 0 1440 800" fill="none" xmlns="http://www.w3.org/2000/svg">
  <g opacity="0.5">
    <circle cx="148" cy="150" r="8" fill="white" fill-opacity="0.2"/>
    <circle cx="432" cy="294" r="8" fill="white" fill-opacity="0.2"/>
    <circle cx="716" cy="438" r="8" fill="white" fill-opacity="0.2"/>
    <circle cx="1000" cy="582" r="8" fill="white" fill-opacity="0.2"/>
    <circle cx="1284" cy="726" r="8" fill="white" fill-opacity="0.2"/>
    <circle cx="148" cy="438" r="8" fill="white" fill-opacity="0.2"/>
    <circle cx="432" cy="582" r="8" fill="white" fill-opacity="0.2"/>
    <circle cx="716" cy="726" r="8" fill="white" fill-opacity="0.2"/>
    <circle cx="1000" cy="150" r="8" fill="white" fill-opacity="0.2"/>
    <circle cx="1284" cy="294" r="8" fill="white" fill-opacity="0.2"/>
    <circle cx="148" cy="726" r="8" fill="white" fill-opacity="0.2"/>
    <circle cx="432" cy="150" r="8" fill="white" fill-opacity="0.2"/>
    <circle cx="716" cy="294" r="8" fill="white" fill-opacity="0.2"/>
    <circle cx="1000" cy="438" r="8" fill="white" fill-opacity="0.2"/>
    <circle cx="1284" cy="582" r="8" fill="white" fill-opacity="0.2"/>
    <circle cx="148" cy="294" r="8" fill="white" fill-opacity="0.2"/>
    <circle cx="432" cy="438" r="8" fill="white" fill-opacity="0.2"/>
    <circle cx="716" cy="582" r="8" fill="white" fill-opacity="0.2"/>
    <circle cx="1000" cy="726" r="8" fill="white" fill-opacity="0.2"/>
    <circle cx="1284" cy="150" r="8" fill="white" fill-opacity="0.2"/>
    <circle cx="148" cy="582" r="8" fill="white" fill-opacity="0.2"/>
    <circle cx="432" cy="726" r="8" fill="white" fill-opacity="0.2"/>
    <circle cx="716" cy="150" r="8" fill="white" fill-opacity="0.2"/>
    <circle cx="1000" cy="294" r="8" fill="white" fill-opacity="0.2"/>
    <circle cx="1284" cy="438" r="8" fill="white" fill-opacity="0.2"/>
  </g>
  <path d="M-240 400C-240 400 -120 300 0 300C120 300 160 460 280 460C400 460 400 200 520 200C640 200 680 340 800 340C920 340 920 200 1040 200C1160 200 1200 300 1320 300C1440 300 1560 200 1680 200" stroke="white" stroke-opacity="0.1" stroke-width="2"/>
  <path d="M-240 420C-240 420 -120 320 0 320C120 320 160 480 280 480C400 480 400 220 520 220C640 220 680 360 800 360C920 360 920 220 1040 220C1160 220 1200 320 1320 320C1440 320 1560 220 1680 220" stroke="white" stroke-opacity="0.1" stroke-width="2"/>
  <path d="M-240 440C-240 440 -120 340 0 340C120 340 160 500 280 500C400 500 400 240 520 240C640 240 680 380 800 380C920 380 920 240 1040 240C1160 240 1200 340 1320 340C1440 340 1560 240 1680 240" stroke="white" stroke-opacity="0.1" stroke-width="2"/>
</svg>
